<?xml version="1.0" encoding="UTF-8" standalone="no"?>
<!DOCTYPE svg PUBLIC "-//W3C//DTD SVG 1.1//EN"
        "http://www.w3.org/Graphics/SVG/1.1/DTD/svg11.dtd">
<!-- Generated by graphviz version 2.40.1 (20161225.0304)
digraph G {
    node [shape=Mrecord];

    a [
        label="Dₓ(X⋅X)";
    ]
    b [
        label="X⋅Dₓ(X) + Dₓ(X)⋅X";
    ]
    c [
        label="X⋅1 + Dₓ(X)⋅X";
    ]
    d [
        label="X⋅1 + 1⋅X";
    ]
    e [
        label=""; shape="plaintext"
    ]
    f [
        label="X⋅Dₓ(X) + 1⋅X";
    ]

    a -> b [label="R4" ltail=ca lhead=ca]
    b -> c [label="R1" ltail=ca lhead=cb]
    c -> d [label="R1" ltail=ca lhead=cb]
    d -> e
    b -> f [label="R1" ltail=ca lhead=cb]
    f -> d [label="R1" ltail=ca lhead=cb]

}
 -->
<!-- Title: G Pages: 1 -->
<svg width="264pt" height="387pt"
     viewBox="0.00 0.00 264.14 387.40" xmlns="http://www.w3.org/2000/svg" xmlns:xlink="http://www.w3.org/1999/xlink">
    <g id="graph0" class="graph" transform="scale(1 1) rotate(0) translate(4 383.4)">
        <title>G</title>
        <polygon fill="transparent" stroke="transparent" points="-4,4 -4,-383.4 260.1422,-383.4 260.1422,4 -4,4"/>
        <!-- a -->
        <g id="node1" class="node">
            <title>a</title>
            <path fill="none" stroke="#000000" d="M101.2506,-342.9C101.2506,-342.9 153.8916,-342.9 153.8916,-342.9 159.8916,-342.9 165.8916,-348.9 165.8916,-354.9 165.8916,-354.9 165.8916,-366.9 165.8916,-366.9 165.8916,-372.9 159.8916,-378.9 153.8916,-378.9 153.8916,-378.9 101.2506,-378.9 101.2506,-378.9 95.2506,-378.9 89.2506,-372.9 89.2506,-366.9 89.2506,-366.9 89.2506,-354.9 89.2506,-354.9 89.2506,-348.9 95.2506,-342.9 101.2506,-342.9"/>
            <text text-anchor="middle" x="127.5711" y="-356.7" font-family="Times,serif" font-size="14.00" fill="#000000">Dₓ(X⋅X)</text>
        </g>
        <!-- b -->
        <g id="node2" class="node">
            <title>b</title>
            <path fill="none" stroke="#000000" d="M63.4828,-253.1C63.4828,-253.1 191.6594,-253.1 191.6594,-253.1 197.6594,-253.1 203.6594,-259.1 203.6594,-265.1 203.6594,-265.1 203.6594,-277.1 203.6594,-277.1 203.6594,-283.1 197.6594,-289.1 191.6594,-289.1 191.6594,-289.1 63.4828,-289.1 63.4828,-289.1 57.4828,-289.1 51.4828,-283.1 51.4828,-277.1 51.4828,-277.1 51.4828,-265.1 51.4828,-265.1 51.4828,-259.1 57.4828,-253.1 63.4828,-253.1"/>
            <text text-anchor="middle" x="127.5711" y="-266.9" font-family="Times,serif" font-size="14.00" fill="#000000">X⋅Dₓ(X) + Dₓ(X)⋅X</text>
        </g>
        <!-- a&#45;&gt;b -->
        <g id="edge1" class="edge">
            <title>a&#45;&gt;b</title>
            <path fill="none" stroke="#000000" d="M127.5711,-342.7276C127.5711,-330.3124 127.5711,-313.6106 127.5711,-299.4579"/>
            <polygon fill="#000000" stroke="#000000" points="131.0712,-299.2453 127.5711,-289.2453 124.0712,-299.2454 131.0712,-299.2453"/>
            <text text-anchor="middle" x="135.7394" y="-311.8" font-family="Times,serif" font-size="14.00" fill="#000000">R4</text>
        </g>
        <!-- c -->
        <g id="node3" class="node">
            <title>c</title>
            <path fill="none" stroke="#000000" d="M12,-163.3C12,-163.3 107.1422,-163.3 107.1422,-163.3 113.1422,-163.3 119.1422,-169.3 119.1422,-175.3 119.1422,-175.3 119.1422,-187.3 119.1422,-187.3 119.1422,-193.3 113.1422,-199.3 107.1422,-199.3 107.1422,-199.3 12,-199.3 12,-199.3 6,-199.3 0,-193.3 0,-187.3 0,-187.3 0,-175.3 0,-175.3 0,-169.3 6,-163.3 12,-163.3"/>
            <text text-anchor="middle" x="59.5711" y="-177.1" font-family="Times,serif" font-size="14.00" fill="#000000">X⋅1 + Dₓ(X)⋅X</text>
        </g>
        <!-- b&#45;&gt;c -->
        <g id="edge2" class="edge">
            <title>b&#45;&gt;c</title>
            <path fill="none" stroke="#000000" d="M113.8103,-252.9276C103.9482,-239.9038 90.514,-222.1629 79.4833,-207.5958"/>
            <polygon fill="#000000" stroke="#000000" points="82.1386,-205.3047 73.3114,-199.4453 76.5581,-209.5305 82.1386,-205.3047"/>
            <text text-anchor="middle" x="108.7394" y="-222" font-family="Times,serif" font-size="14.00" fill="#000000">R1</text>
        </g>
        <!-- f -->
        <g id="node6" class="node">
            <title>f</title>
            <path fill="none" stroke="#000000" d="M149,-163.3C149,-163.3 244.1422,-163.3 244.1422,-163.3 250.1422,-163.3 256.1422,-169.3 256.1422,-175.3 256.1422,-175.3 256.1422,-187.3 256.1422,-187.3 256.1422,-193.3 250.1422,-199.3 244.1422,-199.3 244.1422,-199.3 149,-199.3 149,-199.3 143,-199.3 137,-193.3 137,-187.3 137,-187.3 137,-175.3 137,-175.3 137,-169.3 143,-163.3 149,-163.3"/>
            <text text-anchor="middle" x="196.5711" y="-177.1" font-family="Times,serif" font-size="14.00" fill="#000000">X⋅Dₓ(X) + 1⋅X</text>
        </g>
        <!-- b&#45;&gt;f -->
        <g id="edge5" class="edge">
            <title>b&#45;&gt;f</title>
            <path fill="none" stroke="#000000" d="M141.5343,-252.9276C151.5414,-239.9038 165.1731,-222.1629 176.3661,-207.5958"/>
            <polygon fill="#000000" stroke="#000000" points="179.3111,-209.5074 182.6287,-199.4453 173.7605,-205.2424 179.3111,-209.5074"/>
            <text text-anchor="middle" x="175.7394" y="-222" font-family="Times,serif" font-size="14.00" fill="#000000">R1</text>
        </g>
        <!-- d -->
        <g id="node4" class="node">
            <title>d</title>
            <path fill="none" stroke="#000000" d="M96.5172,-73.5C96.5172,-73.5 158.625,-73.5 158.625,-73.5 164.625,-73.5 170.625,-79.5 170.625,-85.5 170.625,-85.5 170.625,-97.5 170.625,-97.5 170.625,-103.5 164.625,-109.5 158.625,-109.5 158.625,-109.5 96.5172,-109.5 96.5172,-109.5 90.5172,-109.5 84.5172,-103.5 84.5172,-97.5 84.5172,-97.5 84.5172,-85.5 84.5172,-85.5 84.5172,-79.5 90.5172,-73.5 96.5172,-73.5"/>
            <text text-anchor="middle" x="127.5711" y="-87.3" font-family="Times,serif" font-size="14.00" fill="#000000">X⋅1 + 1⋅X</text>
        </g>
        <!-- c&#45;&gt;d -->
        <g id="edge3" class="edge">
            <title>c&#45;&gt;d</title>
            <path fill="none" stroke="#000000" d="M73.3319,-163.1276C83.194,-150.1038 96.6282,-132.3629 107.6589,-117.7958"/>
            <polygon fill="#000000" stroke="#000000" points="110.5841,-119.7305 113.8308,-109.6453 105.0036,-115.5047 110.5841,-119.7305"/>
            <text text-anchor="middle" x="108.7394" y="-132.2" font-family="Times,serif" font-size="14.00" fill="#000000">R1</text>
        </g>
        <!-- e -->
        <g id="node5" class="node">
            <title>e</title>
        </g>
        <!-- d&#45;&gt;e -->
        <g id="edge4" class="edge">
            <title>d&#45;&gt;e</title>
            <path fill="none" stroke="#000000" d="M127.5711,-73.3315C127.5711,-65.204 127.5711,-55.431 127.5711,-46.3748"/>
            <polygon fill="#000000" stroke="#000000" points="131.0712,-46.2142 127.5711,-36.2143 124.0712,-46.2143 131.0712,-46.2142"/>
        </g>
        <!-- f&#45;&gt;d -->
        <g id="edge6" class="edge">
            <title>f&#45;&gt;d</title>
            <path fill="none" stroke="#000000" d="M182.6079,-163.1276C172.6008,-150.1038 158.9691,-132.3629 147.7761,-117.7958"/>
            <polygon fill="#000000" stroke="#000000" points="150.3817,-115.4424 141.5135,-109.6453 144.8311,-119.7074 150.3817,-115.4424"/>
            <text text-anchor="middle" x="175.7394" y="-132.2" font-family="Times,serif" font-size="14.00" fill="#000000">R1</text>
        </g>
    </g>
</svg>
