<?xml version="1.0" encoding="UTF-8" standalone="no"?>
<!DOCTYPE svg PUBLIC "-//W3C//DTD SVG 1.1//EN"
        "http://www.w3.org/Graphics/SVG/1.1/DTD/svg11.dtd">
<!-- Generated by graphviz version 2.40.1 (20161225.0304)
 -->
<!-- Title: G Pages: 1 -->
<svg width="188pt" height="98pt" fill="none"
     viewBox="0.00 0.00 188.00 98.00" xmlns="http://www.w3.org/2000/svg" xmlns:xlink="http://www.w3.org/1999/xlink">
    <g id="graph0" class="graph" transform="scale(1 1) rotate(0) translate(4 94)">
        <title>G</title>
        <polygon fill="#ffffff" stroke="transparent" points="-4,4 -4,-94 184,-94 184,4 -4,4"/>
        <!-- a -->
        <g id="node1" class="node">
            <title>a</title>
            <ellipse fill="none" stroke="#000000" cx="18" cy="-45" rx="18" ry="18"/>
            <text text-anchor="middle" x="18" y="-40.8" font-family="Times,serif" font-size="14.00" fill="#000000">a</text>
        </g>
        <!-- b -->
        <g id="node2" class="node">
            <title>b</title>
            <ellipse fill="#d3d3d3" stroke="#000000" cx="90" cy="-72" rx="18" ry="18"/>
            <text text-anchor="middle" x="90" y="-67.8" font-family="Times,serif" font-size="14.00" fill="#000000">b</text>
        </g>
        <!-- a&#45;&gt;b -->
        <g id="edge1" class="edge">
            <title>a&#45;&gt;b</title>
            <path fill="none" stroke="#000000" d="M35.063,-51.3986C43.5814,-54.593 54.0773,-58.529 63.6048,-62.1018"/>
            <polygon fill="#000000" stroke="#000000" points="62.4672,-65.4132 73.0595,-65.6473 64.9251,-58.8589 62.4672,-65.4132"/>
        </g>
        <!-- c -->
        <g id="node3" class="node">
            <title>c</title>
            <ellipse fill="#d3d3d3" stroke="#000000" cx="90" cy="-18" rx="18" ry="18"/>
            <text text-anchor="middle" x="90" y="-13.8" font-family="Times,serif" font-size="14.00" fill="#000000">c</text>
        </g>
        <!-- a&#45;&gt;c -->
        <g id="edge3" class="edge">
            <title>a&#45;&gt;c</title>
            <path fill="none" stroke="#000000" d="M35.063,-38.6014C43.5814,-35.407 54.0773,-31.471 63.6048,-27.8982"/>
            <polygon fill="#000000" stroke="#000000" points="64.9251,-31.1411 73.0595,-24.3527 62.4672,-24.5868 64.9251,-31.1411"/>
        </g>
        <!-- d -->
        <g id="node4" class="node">
            <title>d</title>
            <ellipse fill="none" stroke="#000000" cx="162" cy="-45" rx="18" ry="18"/>
            <text text-anchor="middle" x="162" y="-40.8" font-family="Times,serif" font-size="14.00" fill="#000000">d</text>
        </g>
        <!-- b&#45;&gt;d -->
        <g id="edge2" class="edge">
            <title>b&#45;&gt;d</title>
            <path fill="none" stroke="#000000" d="M107.063,-65.6014C115.5814,-62.407 126.0773,-58.471 135.6048,-54.8982"/>
            <polygon fill="#000000" stroke="#000000" points="136.9251,-58.1411 145.0595,-51.3527 134.4672,-51.5868 136.9251,-58.1411"/>
        </g>
        <!-- c&#45;&gt;d -->
        <g id="edge4" class="edge">
            <title>c&#45;&gt;d</title>
            <path fill="none" stroke="#000000" d="M107.063,-24.3986C115.5814,-27.593 126.0773,-31.529 135.6048,-35.1018"/>
            <polygon fill="#000000" stroke="#000000" points="134.4672,-38.4132 145.0595,-38.6473 136.9251,-31.8589 134.4672,-38.4132"/>
        </g>
    </g>
</svg>
