<?xml version="1.0" encoding="UTF-8" standalone="no"?>
<!DOCTYPE svg PUBLIC "-//W3C//DTD SVG 1.1//EN"
        "http://www.w3.org/Graphics/SVG/1.1/DTD/svg11.dtd">
<!-- Generated by graphviz version 2.40.1 (20161225.0304)
 -->
<!-- Title: G Pages: 1 -->
<svg width="188pt" height="98pt" fill="none"
     viewBox="0.00 0.00 188.00 98.00" xmlns="http://www.w3.org/2000/svg" xmlns:xlink="http://www.w3.org/1999/xlink">
    <g id="graph0" class="graph" transform="scale(1 1) rotate(0) translate(4 94)">
        <title>G</title>
        <polygon fill="#ffffff" stroke="transparent" points="-4,4 -4,-94 184,-94 184,4 -4,4"/>
        <!-- a -->
        <g id="node1" class="node">
            <title>a</title>
            <ellipse fill="none" stroke="#000000" cx="18" cy="-72" rx="18" ry="18"/>
            <text text-anchor="middle" x="18" y="-67.8" font-family="Times,serif" font-size="14.00" fill="#000000">a</text>
        </g>
        <!-- c -->
        <g id="node3" class="node">
            <title>c</title>
            <ellipse fill="none" stroke="#000000" cx="90" cy="-64" rx="18" ry="18"/>
            <text text-anchor="middle" x="90" y="-59.8" font-family="Times,serif" font-size="14.00" fill="#000000">+</text>
        </g>
        <!-- a&#45;&gt;c -->
        <g id="edge1" class="edge">
            <title>a&#45;&gt;c</title>
            <path fill="none" stroke="#000000" d="M36.1686,-69.9813C43.9875,-69.1125 53.3077,-68.0769 61.9779,-67.1136"/>
            <polygon fill="#000000" stroke="#000000" points="62.5343,-70.5734 72.0866,-65.9904 61.7612,-63.6162 62.5343,-70.5734"/>
        </g>
        <!-- b -->
        <g id="node2" class="node">
            <title>b</title>
            <ellipse fill="none" stroke="#000000" cx="18" cy="-18" rx="18" ry="18"/>
            <text text-anchor="middle" x="18" y="-13.8" font-family="Times,serif" font-size="14.00" fill="#000000">b</text>
        </g>
        <!-- b&#45;&gt;c -->
        <g id="edge2" class="edge">
            <title>b&#45;&gt;c</title>
            <path fill="none" stroke="#000000" d="M33.2693,-27.7554C42.8152,-33.8541 55.3109,-41.8375 66.1446,-48.759"/>
            <polygon fill="#000000" stroke="#000000" points="64.4413,-51.8241 74.7527,-54.2586 68.2101,-45.9253 64.4413,-51.8241"/>
        </g>
        <!-- d -->
        <g id="node4" class="node">
            <title>d</title>
            <ellipse fill="#d3d3d3" stroke="#000000" cx="162" cy="-41" rx="18" ry="18"/>
            <text text-anchor="middle" x="162" y="-36.8" font-family="Times,serif" font-size="14.00" fill="#000000">*</text>
        </g>
        <!-- b&#45;&gt;d -->
        <g id="edge5" class="edge">
            <title>b&#45;&gt;d</title>
            <path fill="none" stroke="#000000" d="M35.9465,-20.8665C60.5226,-24.7918 104.8992,-31.8797 133.9026,-36.5122"/>
            <polygon fill="#000000" stroke="#000000" points="133.4004,-39.9763 143.8273,-38.0974 134.5045,-33.0639 133.4004,-39.9763"/>
        </g>
        <!-- c&#45;&gt;d -->
        <g id="edge3" class="edge">
            <title>c&#45;&gt;d</title>
            <path fill="none" stroke="#000000" d="M107.4292,-58.4323C115.7425,-55.7767 125.8751,-52.5399 135.1423,-49.5796"/>
            <polygon fill="#000000" stroke="#000000" points="136.2706,-52.8934 144.7313,-46.5164 134.1405,-46.2254 136.2706,-52.8934"/>
        </g>
    </g>
</svg>