<?xml version="1.0" encoding="UTF-8" standalone="no"?>
<!DOCTYPE svg PUBLIC "-//W3C//DTD SVG 1.1//EN"
        "http://www.w3.org/Graphics/SVG/1.1/DTD/svg11.dtd">
<!-- Generated by graphviz version 2.40.1 (20161225.0304)
 -->
<!-- Title: G Pages: 1 -->
<svg width="182pt" height="182pt"
     viewBox="0.00 0.00 181.51 181.51" xmlns="http://www.w3.org/2000/svg" xmlns:xlink="http://www.w3.org/1999/xlink">
    <g id="graph0" class="graph" transform="scale(1 1) rotate(0) translate(4 177.5099)">
        <title>G</title>
        <polygon fill="transparent" stroke="transparent" points="-4,4 -4,-177.5099 177.5099,-177.5099 177.5099,4 -4,4"/>
        <!-- a -->
        <g id="node1" class="node">
            <title>a</title>
            <ellipse fill="none" stroke="#000000" cx="86.7549" cy="-18" rx="18" ry="18"/>
            <text text-anchor="middle" x="86.7549" y="-13.8" font-family="Times,serif" font-size="14.00" fill="#000000">1</text>
        </g>
        <!-- b -->
        <g id="node2" class="node">
            <title>b</title>
            <ellipse fill="none" stroke="#000000" cx="18" cy="-86.7549" rx="18" ry="18"/>
            <text text-anchor="middle" x="18" y="-82.5549" font-family="Times,serif" font-size="14.00" fill="#000000">2</text>
        </g>
        <!-- a&#45;&gt;b -->
        <g id="edge1" class="edge">
            <title>a&#45;&gt;b</title>
            <path fill="none" stroke="#000000" d="M69.3532,-23.9249C56.9493,-32.5882 40.9514,-47.9572 29.9278,-61.4638"/>
            <polygon fill="#000000" stroke="#000000" points="27.0431,-59.4753 23.7835,-69.5562 32.6182,-63.7083 27.0431,-59.4753"/>
        </g>
        <!-- c -->
        <g id="node3" class="node">
            <title>c</title>
            <ellipse fill="none" stroke="#000000" cx="86.7549" cy="-155.5099" rx="18" ry="18"/>
            <text text-anchor="middle" x="86.7549" y="-151.3099" font-family="Times,serif" font-size="14.00" fill="#000000">3</text>
        </g>
        <!-- a&#45;&gt;c -->
        <g id="edge7" class="edge">
            <title>a&#45;&gt;c</title>
            <path fill="none" stroke="#000000" d="M86.7549,-36.2602C86.7549,-59.4788 86.7549,-99.8198 86.7549,-127.0803"/>
            <polygon fill="#000000" stroke="#000000" points="83.255,-127.1741 86.7549,-137.1741 90.255,-127.1741 83.255,-127.1741"/>
        </g>
        <!-- b&#45;&gt;a -->
        <g id="edge5" class="edge">
            <title>b&#45;&gt;a</title>
            <path fill="none" stroke="#000000" d="M35.442,-81.49C48.0516,-73.0003 64.3098,-57.4517 75.3534,-43.7075"/>
            <polygon fill="#000000" stroke="#000000" points="78.3243,-45.5773 81.4764,-35.4622 72.7045,-41.4039 78.3243,-45.5773"/>
        </g>
        <!-- b&#45;&gt;c -->
        <g id="edge2" class="edge">
            <title>b&#45;&gt;c</title>
            <path fill="none" stroke="#000000" d="M30.9323,-99.6872C41.0158,-109.7707 55.1978,-123.9528 66.7436,-135.4986"/>
            <polygon fill="#000000" stroke="#000000" points="64.3347,-138.0394 73.8806,-142.6356 69.2844,-133.0896 64.3347,-138.0394"/>
        </g>
        <!-- d -->
        <g id="node4" class="node">
            <title>d</title>
            <ellipse fill="none" stroke="#000000" cx="155.5099" cy="-86.7549" rx="18" ry="18"/>
            <text text-anchor="middle" x="155.5099" y="-82.5549" font-family="Times,serif" font-size="14.00" fill="#000000">4</text>
        </g>
        <!-- c&#45;&gt;d -->
        <g id="edge3" class="edge">
            <title>c&#45;&gt;d</title>
            <path fill="none" stroke="#000000" d="M104.1567,-149.5849C116.5606,-140.9217 132.5585,-125.5526 143.5821,-112.0461"/>
            <polygon fill="#000000" stroke="#000000" points="146.4668,-114.0346 149.7264,-103.9536 140.8917,-109.8016 146.4668,-114.0346"/>
        </g>
        <!-- d&#45;&gt;a -->
        <g id="edge4" class="edge">
            <title>d&#45;&gt;a</title>
            <path fill="none" stroke="#000000" d="M142.5776,-73.8227C132.4941,-63.7391 118.312,-49.5571 106.7662,-38.0113"/>
            <polygon fill="#000000" stroke="#000000" points="109.1752,-35.4705 99.6292,-30.8743 104.2254,-40.4203 109.1752,-35.4705"/>
        </g>
        <!-- d&#45;&gt;c -->
        <g id="edge6" class="edge">
            <title>d&#45;&gt;c</title>
            <path fill="none" stroke="#000000" d="M138.0678,-92.0198C125.4583,-100.5096 109.2001,-116.0582 98.1565,-129.8024"/>
            <polygon fill="#000000" stroke="#000000" points="95.1855,-127.9326 92.0334,-138.0477 100.8054,-132.106 95.1855,-127.9326"/>
        </g>
    </g>
</svg>