<?xml version="1.0" encoding="UTF-8" standalone="no"?>
<!DOCTYPE svg PUBLIC "-//W3C//DTD SVG 1.1//EN"
        "http://www.w3.org/Graphics/SVG/1.1/DTD/svg11.dtd">
<!-- Generated by graphviz version 2.40.1 (20161225.0304)
# http://www.graphviz.org/content/cluster

digraph G {
    rankdir=LR
	node [shape=circle];

	z [shape=plaintext, label=""]
	a [label="S₀", shape=doublecircle]
	b [label="S₁"]

	z -> a
	a -> b[label="1"]
	a -> a[label="0, ε"]
	b -> a[label="0, ε"]
}

 -->
<!-- Title: G Pages: 1 -->
<svg width="260pt" height="98pt"
     viewBox="0.00 0.00 340.75 98.10" xmlns="http://www.w3.org/2000/svg" xmlns:xlink="http://www.w3.org/1999/xlink">
    <g id="graph0" class="graph" transform="scale(1 1) rotate(0) translate(4 94.095)">
        <title>G</title>
        <polygon fill="#ffffff" stroke="transparent" points="-4,4 -4,-94.095 255.7506,-94.095 255.7506,4 -4,4"/>
        <!-- z -->
        <g id="node1" class="node">
            <title>z</title>
        </g>
        <!-- a -->
        <g id="node2" class="node">
            <title>a</title>
            <ellipse fill="none" stroke="#000000" cx="118.6475" cy="-27.6475" rx="23.7744" ry="23.7744"/>
            <ellipse fill="none" stroke="#000000" cx="118.6475" cy="-27.6475" rx="27.7958" ry="27.7958"/>
            <text text-anchor="middle" x="118.6475" y="-23.4475" font-family="Times,serif" font-size="14.00" fill="#000000">S₀</text>
        </g>
        <!-- z&#45;&gt;a -->
        <g id="edge1" class="edge">
            <title>z&#45;&gt;a</title>
            <path fill="none" stroke="#000000" d="M54.0016,-27.6475C62.3506,-27.6475 71.7087,-27.6475 80.6561,-27.6475"/>
            <polygon fill="#000000" stroke="#000000" points="80.886,-31.1476 90.886,-27.6475 80.8859,-24.1476 80.886,-31.1476"/>
        </g>
        <!-- a&#45;&gt;a -->
        <g id="edge3" class="edge">
            <title>a&#45;&gt;a</title>
            <path fill="none" stroke="#000000" d="M110.0562,-54.3732C109.6744,-64.7064 112.5381,-73.295 118.6475,-73.295 122.5613,-73.295 125.1432,-69.7702 126.393,-64.5201"/>
            <polygon fill="#000000" stroke="#000000" points="129.8959,-64.6294 127.2388,-54.3732 122.9201,-64.0479 129.8959,-64.6294"/>
            <text text-anchor="middle" x="118.6475" y="-77.495" font-family="Times,serif" font-size="14.00" fill="#000000">0, ε</text>
        </g>
        <!-- b -->
        <g id="node3" class="node">
            <title>b</title>
            <ellipse fill="none" stroke="#000000" cx="228.1031" cy="-27.6475" rx="23.796" ry="23.796"/>
            <text text-anchor="middle" x="228.1031" y="-23.4475" font-family="Times,serif" font-size="14.00" fill="#000000">S₁</text>
        </g>
        <!-- a&#45;&gt;b -->
        <g id="edge2" class="edge">
            <title>a&#45;&gt;b</title>
            <path fill="none" stroke="#000000" d="M146.551,-27.6475C161.0633,-27.6475 178.9188,-27.6475 194.219,-27.6475"/>
            <polygon fill="#000000" stroke="#000000" points="194.3308,-31.1476 204.3308,-27.6475 194.3307,-24.1476 194.3308,-31.1476"/>
            <text text-anchor="middle" x="175.3753" y="-31.8475" font-family="Times,serif" font-size="14.00" fill="#000000">1</text>
        </g>
        <!-- b&#45;&gt;a -->
        <g id="edge4" class="edge">
            <title>b&#45;&gt;a</title>
            <path fill="none" stroke="#000000" d="M207.6362,-15.077C201.1068,-11.7205 193.6926,-8.5542 186.4556,-6.8475 175.1692,-4.1859 163.0106,-6.2971 152.1488,-10.0299"/>
            <polygon fill="#000000" stroke="#000000" points="150.6015,-6.8784 142.6004,-13.8235 153.1862,-13.3838 150.6015,-6.8784"/>
            <text text-anchor="middle" x="175.3753" y="-10.8475" font-family="Times,serif" font-size="14.00" fill="#000000">0, ε</text>
        </g>
    </g>
</svg>
