<?xml version="1.0" encoding="UTF-8" standalone="no"?>
<!DOCTYPE svg PUBLIC "-//W3C//DTD SVG 1.1//EN"
        "http://www.w3.org/Graphics/SVG/1.1/DTD/svg11.dtd">
<!-- Generated by graphviz version 2.40.1 (20161225.0304)
# http://www.graphviz.org/content/cluster

digraph G {

    layout="circo";
    node [shape="circle";]

    7 -> 6 -> 5 -> 4 -> 3 -> 2 -> 1 -> 0
    7 -> 4
    4 -> 0
    7 -> 3
    4 -> 1
    4 -> 2
    5 -> 2
    5 -> 0
    6 -> 4
    2 -> 0
    6 -> 2
}

 -->
<!-- Title: G Pages: 1 -->
<svg width="319pt" height="319pt"
     viewBox="0.00 0.00 319.02 319.02" xmlns="http://www.w3.org/2000/svg" xmlns:xlink="http://www.w3.org/1999/xlink">
    <g id="graph0" class="graph" transform="scale(1 1) rotate(0) translate(4 315.0197)">
        <title>G</title>
        <polygon fill="transparent" stroke="transparent" points="-4,4 -4,-315.0197 315.0197,-315.0197 315.0197,4 -4,4"/>
        <!-- 7 -->
        <g id="node1" class="node">
            <title>7</title>
            <ellipse fill="none" stroke="#000000" cx="252.744" cy="-252.744" rx="18" ry="18"/>
            <text text-anchor="middle" x="252.744" y="-248.544" font-family="Times,serif" font-size="14.00" fill="#000000">7</text>
        </g>
        <!-- 6 -->
        <g id="node2" class="node">
            <title>6</title>
            <ellipse fill="none" stroke="#000000" cx="155.5099" cy="-293.0197" rx="18" ry="18"/>
            <text text-anchor="middle" x="155.5099" y="-288.8197" font-family="Times,serif" font-size="14.00" fill="#000000">6</text>
        </g>
        <!-- 7&#45;&gt;6 -->
        <g id="edge1" class="edge">
            <title>7&#45;&gt;6</title>
            <path fill="none" stroke="#000000" d="M235.8071,-259.7595C220.8884,-265.9391 198.9203,-275.0385 181.7315,-282.1584"/>
            <polygon fill="#000000" stroke="#000000" points="180.1521,-279.0242 172.2527,-286.0846 182.8309,-285.4913 180.1521,-279.0242"/>
        </g>
        <!-- 4 -->
        <g id="node4" class="node">
            <title>4</title>
            <ellipse fill="none" stroke="#000000" cx="58.2757" cy="-252.744" rx="18" ry="18"/>
            <text text-anchor="middle" x="58.2757" y="-248.544" font-family="Times,serif" font-size="14.00" fill="#000000">4</text>
        </g>
        <!-- 7&#45;&gt;4 -->
        <g id="edge8" class="edge">
            <title>7&#45;&gt;4</title>
            <path fill="none" stroke="#000000" d="M234.4489,-252.744C200.3385,-252.744 126.831,-252.744 86.3809,-252.744"/>
            <polygon fill="#000000" stroke="#000000" points="86.3806,-249.2441 76.3805,-252.744 86.3805,-256.2441 86.3806,-249.2441"/>
        </g>
        <!-- 3 -->
        <g id="node5" class="node">
            <title>3</title>
            <ellipse fill="none" stroke="#000000" cx="293.0197" cy="-155.5099" rx="18" ry="18"/>
            <text text-anchor="middle" x="293.0197" y="-151.3099" font-family="Times,serif" font-size="14.00" fill="#000000">3</text>
        </g>
        <!-- 7&#45;&gt;3 -->
        <g id="edge10" class="edge">
            <title>7&#45;&gt;3</title>
            <path fill="none" stroke="#000000" d="M259.7595,-235.8071C265.9391,-220.8884 275.0385,-198.9203 282.1584,-181.7315"/>
            <polygon fill="#000000" stroke="#000000" points="285.4913,-182.8309 286.0846,-172.2527 279.0242,-180.1521 285.4913,-182.8309"/>
        </g>
        <!-- 5 -->
        <g id="node3" class="node">
            <title>5</title>
            <ellipse fill="none" stroke="#000000" cx="18" cy="-155.5099" rx="18" ry="18"/>
            <text text-anchor="middle" x="18" y="-151.3099" font-family="Times,serif" font-size="14.00" fill="#000000">5</text>
        </g>
        <!-- 6&#45;&gt;5 -->
        <g id="edge2" class="edge">
            <title>6&#45;&gt;5</title>
            <path fill="none" stroke="#000000" d="M142.5733,-280.0831C118.5149,-256.0248 66.7403,-204.2501 38.0922,-175.6021"/>
            <polygon fill="#000000" stroke="#000000" points="40.5484,-173.1085 31.0024,-168.5123 35.5986,-178.0582 40.5484,-173.1085"/>
        </g>
        <!-- 6&#45;&gt;4 -->
        <g id="edge15" class="edge">
            <title>6&#45;&gt;4</title>
            <path fill="none" stroke="#000000" d="M138.573,-286.0042C123.6543,-279.8247 101.6862,-270.7252 84.4973,-263.6054"/>
            <polygon fill="#000000" stroke="#000000" points="85.5967,-260.2724 75.0185,-259.6791 82.9179,-266.7396 85.5967,-260.2724"/>
        </g>
        <!-- 2 -->
        <g id="node6" class="node">
            <title>2</title>
            <ellipse fill="none" stroke="#000000" cx="58.2757" cy="-58.2757" rx="18" ry="18"/>
            <text text-anchor="middle" x="58.2757" y="-54.0757" font-family="Times,serif" font-size="14.00" fill="#000000">2</text>
        </g>
        <!-- 6&#45;&gt;2 -->
        <g id="edge17" class="edge">
            <title>6&#45;&gt;2</title>
            <path fill="none" stroke="#000000" d="M148.517,-276.1375C131.7679,-235.7017 89.2542,-133.0643 69.14,-84.5044"/>
            <polygon fill="#000000" stroke="#000000" points="72.2657,-82.9043 65.2052,-75.005 65.7985,-85.5832 72.2657,-82.9043"/>
        </g>
        <!-- 5&#45;&gt;4 -->
        <g id="edge3" class="edge">
            <title>5&#45;&gt;4</title>
            <path fill="none" stroke="#000000" d="M25.0155,-172.4468C31.195,-187.3655 40.2945,-209.3336 47.4144,-226.5224"/>
            <polygon fill="#000000" stroke="#000000" points="44.2801,-228.1018 51.3406,-236.0012 50.7473,-225.423 44.2801,-228.1018"/>
        </g>
        <!-- 5&#45;&gt;2 -->
        <g id="edge13" class="edge">
            <title>5&#45;&gt;2</title>
            <path fill="none" stroke="#000000" d="M25.0155,-138.573C31.195,-123.6543 40.2945,-101.6862 47.4144,-84.4973"/>
            <polygon fill="#000000" stroke="#000000" points="50.7473,-85.5967 51.3406,-75.0185 44.2801,-82.9179 50.7473,-85.5967"/>
        </g>
        <!-- 0 -->
        <g id="node8" class="node">
            <title>0</title>
            <ellipse fill="none" stroke="#000000" cx="252.744" cy="-58.2757" rx="18" ry="18"/>
            <text text-anchor="middle" x="252.744" y="-54.0757" font-family="Times,serif" font-size="14.00" fill="#000000">0</text>
        </g>
        <!-- 5&#45;&gt;0 -->
        <g id="edge14" class="edge">
            <title>5&#45;&gt;0</title>
            <path fill="none" stroke="#000000" d="M34.8822,-148.517C75.3181,-131.7679 177.9555,-89.2542 226.5153,-69.14"/>
            <polygon fill="#000000" stroke="#000000" points="228.1154,-72.2657 236.0148,-65.2052 225.4366,-65.7985 228.1154,-72.2657"/>
        </g>
        <!-- 4&#45;&gt;3 -->
        <g id="edge4" class="edge">
            <title>4&#45;&gt;3</title>
            <path fill="none" stroke="#000000" d="M75.1579,-245.7512C115.5938,-229.0021 218.2312,-186.4883 266.791,-166.3742"/>
            <polygon fill="#000000" stroke="#000000" points="268.3911,-169.4998 276.2905,-162.4393 265.7123,-163.0327 268.3911,-169.4998"/>
        </g>
        <!-- 4&#45;&gt;2 -->
        <g id="edge12" class="edge">
            <title>4&#45;&gt;2</title>
            <path fill="none" stroke="#000000" d="M58.2757,-234.4489C58.2757,-200.3385 58.2757,-126.831 58.2757,-86.3809"/>
            <polygon fill="#000000" stroke="#000000" points="61.7758,-86.3805 58.2757,-76.3805 54.7758,-86.3806 61.7758,-86.3805"/>
        </g>
        <!-- 1 -->
        <g id="node7" class="node">
            <title>1</title>
            <ellipse fill="none" stroke="#000000" cx="155.5099" cy="-18" rx="18" ry="18"/>
            <text text-anchor="middle" x="155.5099" y="-13.8" font-family="Times,serif" font-size="14.00" fill="#000000">1</text>
        </g>
        <!-- 4&#45;&gt;1 -->
        <g id="edge11" class="edge">
            <title>4&#45;&gt;1</title>
            <path fill="none" stroke="#000000" d="M65.2685,-235.8618C82.0176,-195.426 124.5314,-92.7886 144.6456,-44.2287"/>
            <polygon fill="#000000" stroke="#000000" points="147.9871,-45.3075 148.5804,-34.7292 141.5199,-42.6286 147.9871,-45.3075"/>
        </g>
        <!-- 4&#45;&gt;0 -->
        <g id="edge9" class="edge">
            <title>4&#45;&gt;0</title>
            <path fill="none" stroke="#000000" d="M71.0353,-239.9844C103.9903,-207.0294 192.1706,-118.8491 232.323,-78.6968"/>
            <polygon fill="#000000" stroke="#000000" points="235.0862,-80.8833 239.6825,-71.3373 230.1365,-75.9335 235.0862,-80.8833"/>
        </g>
        <!-- 3&#45;&gt;2 -->
        <g id="edge5" class="edge">
            <title>3&#45;&gt;2</title>
            <path fill="none" stroke="#000000" d="M276.1375,-148.517C235.7017,-131.7679 133.0643,-89.2542 84.5044,-69.14"/>
            <polygon fill="#000000" stroke="#000000" points="85.5832,-65.7985 75.005,-65.2052 82.9043,-72.2657 85.5832,-65.7985"/>
        </g>
        <!-- 2&#45;&gt;1 -->
        <g id="edge6" class="edge">
            <title>2&#45;&gt;1</title>
            <path fill="none" stroke="#000000" d="M75.2126,-51.2602C90.1313,-45.0807 112.0994,-35.9812 129.2882,-28.8614"/>
            <polygon fill="#000000" stroke="#000000" points="130.8677,-31.9956 138.7671,-24.9351 128.1888,-25.5284 130.8677,-31.9956"/>
        </g>
        <!-- 2&#45;&gt;0 -->
        <g id="edge16" class="edge">
            <title>2&#45;&gt;0</title>
            <path fill="none" stroke="#000000" d="M76.5708,-58.2757C110.6813,-58.2757 184.1887,-58.2757 224.6388,-58.2757"/>
            <polygon fill="#000000" stroke="#000000" points="224.6392,-61.7758 234.6392,-58.2757 224.6392,-54.7758 224.6392,-61.7758"/>
        </g>
        <!-- 1&#45;&gt;0 -->
        <g id="edge7" class="edge">
            <title>1&#45;&gt;0</title>
            <path fill="none" stroke="#000000" d="M172.4468,-25.0155C187.3655,-31.195 209.3336,-40.2945 226.5224,-47.4144"/>
            <polygon fill="#000000" stroke="#000000" points="225.423,-50.7473 236.0012,-51.3406 228.1018,-44.2801 225.423,-50.7473"/>
        </g>
    </g>
</svg>