<?xml version="1.0" encoding="UTF-8" standalone="no"?>
<!DOCTYPE svg PUBLIC "-//W3C//DTD SVG 1.1//EN"
        "http://www.w3.org/Graphics/SVG/1.1/DTD/svg11.dtd">
<svg width="251px" height="599px" viewBox="0.00 0.00 250.51 599.41" xmlns="http://www.w3.org/2000/svg" xmlns:xlink="http://www.w3.org/1999/xlink">
    <g id="graph0" class="graph" transform="scale(1.0 1.0) rotate(0) translate(4 595.4113)">
        <title>%3</title>
        <polygon fill="#ffffff" stroke="transparent" points="-4,4 -4,-595.4113 246.508,-595.4113 246.508,4 -4,4"></polygon>
        <!-- 1 -->
        <g id="node1" class="node">
            <title>1</title>
            <ellipse fill="none" stroke="#000000" stroke-width="2" cx="50.508" cy="-99.6396" rx="27" ry="21.4286"></ellipse>
            <text text-anchor="middle" x="50.508" y="-94.6396" font-family="Helvetica,sans-Serif" font-size="20.00" fill="#000000">1</text>
        </g>
        <!-- 0 -->
        <g id="node2" class="node">
            <title>0</title>
            <ellipse fill="none" stroke="#000000" stroke-width="2" cx="77.508" cy="-21.2132" rx="27" ry="21.4286"></ellipse>
            <text text-anchor="middle" x="77.508" y="-16.2132" font-family="Helvetica,sans-Serif" font-size="20.00" fill="#000000">0</text>
        </g>
        <!-- 1&#45;&gt;0 -->
        <g id="edge1" class="edge">
            <title>1-&gt;0</title>
            <path fill="none" stroke="#000000" stroke-width="2" d="M57.602,-79.034C60.4934,-70.6352 63.8953,-60.7538 67.0609,-51.5589"></path>
            <polygon fill="#000000" stroke="#000000" stroke-width="2" points="70.4218,-52.5482 70.3677,-41.9535 63.8031,-50.2695 70.4218,-52.5482"></polygon>
        </g>
        <!-- 2 -->
        <g id="node3" class="node">
            <title>2</title>
            <ellipse fill="none" stroke="#000000" stroke-width="2" cx="105.508" cy="-178.066" rx="27" ry="21.4286"></ellipse>
            <text text-anchor="middle" x="105.508" y="-173.066" font-family="Helvetica,sans-Serif" font-size="20.00" fill="#000000">2</text>
        </g>
        <!-- 2&#45;&gt;1 -->
        <g id="edge3" class="edge">
            <title>2-&gt;1</title>
            <path fill="none" stroke="#000000" stroke-width="2" d="M92.4738,-159.4801C85.6059,-149.6868 77.0552,-137.4941 69.4675,-126.6745"></path>
            <polygon fill="#000000" stroke="#000000" stroke-width="2" points="72.2467,-124.5417 63.6393,-118.364 66.5155,-128.5609 72.2467,-124.5417"></polygon>
        </g>
        <!-- 2&#45;&gt;0 -->
        <g id="edge2" class="edge">
            <title>2-&gt;0</title>
            <path fill="none" stroke="#000000" stroke-width="2" d="M101.7318,-156.9121C96.9381,-130.0583 88.6281,-83.5063 83.0986,-52.5308"></path>
            <polygon fill="#000000" stroke="#000000" stroke-width="2" points="86.472,-51.5111 81.269,-42.2818 79.5809,-52.7413 86.472,-51.5111"></polygon>
        </g>
        <!-- 3 -->
        <g id="node4" class="node">
            <title>3</title>
            <ellipse fill="none" stroke="#000000" stroke-width="2" cx="105.508" cy="-256.4924" rx="27" ry="21.4286"></ellipse>
            <text text-anchor="middle" x="105.508" y="-251.4924" font-family="Helvetica,sans-Serif" font-size="20.00" fill="#000000">3</text>
        </g>
        <!-- 3&#45;&gt;2 -->
        <g id="edge4" class="edge">
            <title>3-&gt;2</title>
            <path fill="none" stroke="#000000" stroke-width="2" d="M105.508,-235.0621C105.508,-227.1948 105.508,-218.1159 105.508,-209.5495"></path>
            <polygon fill="#000000" stroke="#000000" stroke-width="2" points="109.0081,-209.4704 105.508,-199.4705 102.0081,-209.4705 109.0081,-209.4704"></polygon>
        </g>
        <!-- 4 -->
        <g id="node5" class="node">
            <title>4</title>
            <ellipse fill="none" stroke="#000000" stroke-width="2" cx="50.508" cy="-334.9188" rx="27" ry="21.4286"></ellipse>
            <text text-anchor="middle" x="50.508" y="-329.9188" font-family="Helvetica,sans-Serif" font-size="20.00" fill="#000000">4</text>
        </g>
        <!-- 4&#45;&gt;1 -->
        <g id="edge8" class="edge">
            <title>4-&gt;1</title>
            <path fill="none" stroke="#000000" stroke-width="2" d="M50.508,-313.6244C50.508,-272.0847 50.508,-180.0521 50.508,-131.327"></path>
            <polygon fill="#000000" stroke="#000000" stroke-width="2" points="54.0081,-131.0554 50.508,-121.0554 47.0081,-131.0555 54.0081,-131.0554"></polygon>
        </g>
        <!-- 4&#45;&gt;0 -->
        <g id="edge6" class="edge">
            <title>4-&gt;0</title>
            <path fill="none" stroke="#000000" stroke-width="2" d="M40.715,-314.9395C20.3422,-270.4037 -21.8049,-160.4562 14.508,-78.4264 21.4255,-62.8001 34.9526,-49.6149 47.7047,-39.8549"></path>
            <polygon fill="#000000" stroke="#000000" stroke-width="2" points="49.8343,-42.6343 55.8955,-33.9445 45.7382,-36.9578 49.8343,-42.6343"></polygon>
        </g>
        <!-- 4&#45;&gt;2 -->
        <g id="edge5" class="edge">
            <title>4-&gt;2</title>
            <path fill="none" stroke="#000000" stroke-width="2" d="M52.2486,-313.6754C54.4673,-293.0563 59.3161,-261.1695 69.508,-235.2792 73.6452,-224.7696 79.7598,-214.0759 85.7802,-204.8218"></path>
            <polygon fill="#000000" stroke="#000000" stroke-width="2" points="88.745,-206.6856 91.4559,-196.4435 82.9496,-202.7597 88.745,-206.6856"></polygon>
        </g>
        <!-- 4&#45;&gt;3 -->
        <g id="edge7" class="edge">
            <title>4-&gt;3</title>
            <path fill="none" stroke="#000000" stroke-width="2" d="M63.5423,-316.3329C70.4102,-306.5396 78.9609,-294.3469 86.5486,-283.5273"></path>
            <polygon fill="#000000" stroke="#000000" stroke-width="2" points="89.5006,-285.4137 92.3768,-275.2168 83.7694,-281.3945 89.5006,-285.4137"></polygon>
        </g>
        <!-- 5 -->
        <g id="node6" class="node">
            <title>5</title>
            <ellipse fill="none" stroke="#000000" stroke-width="2" cx="215.508" cy="-413.3452" rx="27" ry="21.4286"></ellipse>
            <text text-anchor="middle" x="215.508" y="-408.3452" font-family="Helvetica,sans-Serif" font-size="20.00" fill="#000000">5</text>
        </g>
        <!-- 5&#45;&gt;0 -->
        <g id="edge9" class="edge">
            <title>5-&gt;0</title>
            <path fill="none" stroke="#000000" stroke-width="2" d="M220.1166,-392.407C226.2983,-362.4443 236.508,-305.5342 236.508,-256.4924 236.508,-256.4924 236.508,-256.4924 236.508,-178.066 236.508,-107.8714 157.0001,-58.5177 110.4311,-35.6307"></path>
            <polygon fill="#000000" stroke="#000000" stroke-width="2" points="111.8444,-32.4271 101.3119,-31.2791 108.8297,-38.7447 111.8444,-32.4271"></polygon>
        </g>
        <!-- 5&#45;&gt;2 -->
        <g id="edge10" class="edge">
            <title>5-&gt;2</title>
            <path fill="none" stroke="#000000" stroke-width="2" d="M214.933,-391.9517C213.0842,-356.7479 205.4704,-285.5079 174.508,-235.2792 164.9056,-219.7016 149.5657,-206.363 135.7855,-196.4934"></path>
            <polygon fill="#000000" stroke="#000000" stroke-width="2" points="137.7022,-193.564 127.4722,-190.8074 133.7504,-199.3418 137.7022,-193.564"></polygon>
        </g>
        <!-- 5&#45;&gt;4 -->
        <g id="edge11" class="edge">
            <title>5-&gt;4</title>
            <path fill="none" stroke="#000000" stroke-width="2" d="M192.2175,-402.275C163.7189,-388.7293 115.2973,-365.7139 83.1085,-350.4142"></path>
            <polygon fill="#000000" stroke="#000000" stroke-width="2" points="84.2143,-347.0646 73.6801,-345.9328 81.2092,-353.3868 84.2143,-347.0646"></polygon>
        </g>
        <!-- 6 -->
        <g id="node7" class="node">
            <title>6</title>
            <ellipse fill="none" stroke="#000000" stroke-width="2" cx="160.508" cy="-491.7716" rx="27" ry="21.4286"></ellipse>
            <text text-anchor="middle" x="160.508" y="-486.7716" font-family="Helvetica,sans-Serif" font-size="20.00" fill="#000000">6</text>
        </g>
        <!-- 6&#45;&gt;2 -->
        <g id="edge14" class="edge">
            <title>6-&gt;2</title>
            <path fill="none" stroke="#000000" stroke-width="2" d="M162.3254,-470.495C165.4286,-425.6844 168.9938,-318.8391 141.508,-235.2792 137.9789,-224.5502 132.0152,-213.8019 125.9463,-204.5654"></path>
            <polygon fill="#000000" stroke="#000000" stroke-width="2" points="128.7409,-202.453 120.1714,-196.2228 122.9853,-206.4372 128.7409,-202.453"></polygon>
        </g>
        <!-- 6&#45;&gt;4 -->
        <g id="edge12" class="edge">
            <title>6-&gt;4</title>
            <path fill="none" stroke="#000000" stroke-width="2" d="M147.4576,-473.1626C128.1065,-445.5692 91.6979,-393.6528 69.4233,-361.8908"></path>
            <polygon fill="#000000" stroke="#000000" stroke-width="2" points="72.1488,-359.6814 63.5415,-353.5036 66.4177,-363.7006 72.1488,-359.6814"></polygon>
        </g>
        <!-- 6&#45;&gt;5 -->
        <g id="edge13" class="edge">
            <title>6-&gt;5</title>
            <path fill="none" stroke="#000000" stroke-width="2" d="M173.5423,-473.1857C180.4102,-463.3925 188.9609,-451.1997 196.5486,-440.3801"></path>
            <polygon fill="#000000" stroke="#000000" stroke-width="2" points="199.5006,-442.2666 202.3768,-432.0696 193.7694,-438.2473 199.5006,-442.2666"></polygon>
        </g>
        <!-- 7 -->
        <g id="node8" class="node">
            <title>7</title>
            <ellipse fill="none" stroke="#000000" stroke-width="2" cx="105.508" cy="-570.1981" rx="27" ry="21.4286"></ellipse>
            <text text-anchor="middle" x="105.508" y="-565.1981" font-family="Helvetica,sans-Serif" font-size="20.00" fill="#000000">7</text>
        </g>
        <!-- 7&#45;&gt;3 -->
        <g id="edge17" class="edge">
            <title>7-&gt;3</title>
            <path fill="none" stroke="#000000" stroke-width="2" d="M105.508,-548.6358C105.508,-494.3299 105.508,-351.7292 105.508,-288.0228"></path>
            <polygon fill="#000000" stroke="#000000" stroke-width="2" points="109.0081,-287.7907 105.508,-277.7908 102.0081,-287.7908 109.0081,-287.7907"></polygon>
        </g>
        <!-- 7&#45;&gt;4 -->
        <g id="edge16" class="edge">
            <title>7-&gt;4</title>
            <path fill="none" stroke="#000000" stroke-width="2" d="M100.3193,-549.2906C97.6508,-538.4634 94.3668,-525.0234 91.508,-512.9848 79.2671,-461.4363 65.5476,-401.3592 57.4887,-365.8217"></path>
            <polygon fill="#000000" stroke="#000000" stroke-width="2" points="60.8974,-365.0266 55.2745,-356.0469 54.0703,-366.5731 60.8974,-365.0266"></polygon>
        </g>
        <!-- 7&#45;&gt;6 -->
        <g id="edge15" class="edge">
            <title>7-&gt;6</title>
            <path fill="none" stroke="#000000" stroke-width="2" d="M118.5423,-551.6121C125.4102,-541.8189 133.9609,-529.6261 141.5486,-518.8066"></path>
            <polygon fill="#000000" stroke="#000000" stroke-width="2" points="144.5006,-520.693 147.3768,-510.496 138.7694,-516.6737 144.5006,-520.693"></polygon>
        </g>
    </g>
</svg>