<?xml version="1.0" encoding="UTF-8" standalone="no"?>
<!DOCTYPE svg PUBLIC "-//W3C//DTD SVG 1.1//EN"
        "http://www.w3.org/Graphics/SVG/1.1/DTD/svg11.dtd">
<!-- Generated by graphviz version 2.40.1 (20161225.0304)
 -->
<!-- Title: G Pages: 1 -->
<svg width="188pt" height="62pt" fill="none"
     viewBox="0.00 0.00 188.00 62.00" xmlns="http://www.w3.org/2000/svg" xmlns:xlink="http://www.w3.org/1999/xlink">
    <g id="graph0" class="graph" transform="scale(1 1) rotate(0) translate(4 58)">
        <title>G</title>
        <polygon fill="transparent" stroke="transparent" points="-4,4 -4,-58 184,-58 184,4 -4,4"/>
        <!-- a -->
        <g id="node1" class="node">
            <title>a</title>
            <ellipse fill="#d3d3d3" stroke="#000000" cx="18" cy="-18" rx="18" ry="18"/>
            <text text-anchor="middle" x="18" y="-13.8" font-family="Times,serif" font-size="14.00" fill="#000000">a</text>
        </g>
        <!-- b -->
        <g id="node2" class="node">
            <title>b</title>
            <ellipse fill="none" stroke="#000000" cx="90" cy="-18" rx="18" ry="18"/>
            <text text-anchor="middle" x="90" y="-13.8" font-family="Times,serif" font-size="14.00" fill="#000000">b</text>
        </g>
        <!-- a&#45;&gt;b -->
        <g id="edge1" class="edge">
            <title>a&#45;&gt;b</title>
            <path fill="none" stroke="#000000" d="M36.1686,-18C43.869,-18 53.0257,-18 61.5834,-18"/>
            <polygon fill="#000000" stroke="#000000" points="61.5868,-21.5001 71.5867,-18 61.5867,-14.5001 61.5868,-21.5001"/>
        </g>
        <!-- c -->
        <g id="node3" class="node">
            <title>c</title>
            <ellipse fill="none" stroke="#000000" cx="162" cy="-18" rx="18" ry="18"/>
            <text text-anchor="middle" x="162" y="-13.8" font-family="Times,serif" font-size="14.00" fill="#000000">c</text>
        </g>
        <!-- b&#45;&gt;c -->
        <g id="edge2" class="edge">
            <title>b&#45;&gt;c</title>
            <path fill="none" stroke="#000000" d="M108.1686,-18C115.869,-18 125.0257,-18 133.5834,-18"/>
            <polygon fill="#000000" stroke="#000000" points="133.5868,-21.5001 143.5867,-18 133.5867,-14.5001 133.5868,-21.5001"/>
        </g>
        <!-- c&#45;&gt;c -->
        <g id="edge3" class="edge">
            <title>c&#45;&gt;c</title>
            <path fill="none" stroke="#000000" d="M150.2435,-32.0417C145.8468,-42.9126 149.7656,-54 162,-54 170.4111,-54 174.8919,-48.7595 175.4422,-41.9516"/>
            <polygon fill="#000000" stroke="#000000" points="178.884,-41.3132 173.7565,-32.0417 171.9831,-42.4871 178.884,-41.3132"/>
        </g>
    </g>
</svg>