<?xml version="1.0" encoding="UTF-8" standalone="no"?>
<!DOCTYPE svg PUBLIC "-//W3C//DTD SVG 1.1//EN"
        "http://www.w3.org/Graphics/SVG/1.1/DTD/svg11.dtd">
<!-- Generated by graphviz version 2.40.1 (20161225.0304)
digraph G {
    rankdir=LR; nodesep=0.5
    node[shape=circle]

    qq[style=invisible]
    q0[label="q₀", shape=doublecircle]
    q1[label="q₁"]
    q2[label="q₂", shape=doublecircle]
    q3[label="q₃", shape=doublecircle]
    q4[label="q₄"]
    q5[label="q₅", shape=doublecircle]
    qq-> q0
    q0 -> q1 [label="1"]
    q1 -> q2 [label="0"]
    q2 -> q1 [label="1"]
    q0 -> q3 [label="0"]
    q3 -> q3 [label="0"]
    q3 -> q4 [label="0"]
    q5 -> q3 [label="0"]
    q4 -> q5 [label="1"]
    q5 -> q4 [label="0"]
}
 -->
<!-- Title: G Pages: 1 -->
<svg width="432pt" height="212pt"
     viewBox="0.00 0.00 500.25 212.22" xmlns="http://www.w3.org/2000/svg" xmlns:xlink="http://www.w3.org/1999/xlink">
    <g id="graph0" class="graph" transform="scale(1 1) rotate(0) translate(4 208.2154)">
        <title>G</title>
        <polygon fill="transparent" stroke="transparent" points="-4,4 -4,-208.2154 428.2484,-208.2154 428.2484,4 -4,4"/>
        <!-- qq -->
        <g id="node1" class="node">
            <title>qq</title>
        </g>
        <!-- q0 -->
        <g id="node2" class="node">
            <title>q0</title>
            <ellipse fill="none" stroke="#000000" cx="105.4946" cy="-87.1077" rx="23.1999" ry="23.1999"/>
            <ellipse fill="none" stroke="#000000" cx="105.4946" cy="-87.1077" rx="27.2158" ry="27.2158"/>
            <text text-anchor="middle" x="105.4946" y="-82.9077" font-family="Times,serif" font-size="14.00" fill="#000000">q₀</text>
        </g>
        <!-- qq&#45;&gt;q0 -->
        <g id="edge1" class="edge">
            <title>qq&#45;&gt;q0</title>
            <path fill="none" stroke="#000000" d="M41.6555,-87.1077C49.7092,-87.1077 59.1632,-87.1077 68.291,-87.1077"/>
            <polygon fill="#000000" stroke="#000000" points="68.366,-90.6078 78.366,-87.1077 68.366,-83.6078 68.366,-90.6078"/>
        </g>
        <!-- q1 -->
        <g id="node3" class="node">
            <title>q1</title>
            <ellipse fill="none" stroke="#000000" cx="202.71" cy="-147.1077" rx="23.2159" ry="23.2159"/>
            <text text-anchor="middle" x="202.71" y="-142.9077" font-family="Times,serif" font-size="14.00" fill="#000000">q₁</text>
        </g>
        <!-- q0&#45;&gt;q1 -->
        <g id="edge2" class="edge">
            <title>q0&#45;&gt;q1</title>
            <path fill="none" stroke="#000000" d="M129.0277,-101.632C142.7091,-110.076 160.0402,-120.7725 174.4561,-129.6698"/>
            <polygon fill="#000000" stroke="#000000" points="172.6487,-132.6672 182.9967,-134.9409 176.3252,-126.7104 172.6487,-132.6672"/>
            <text text-anchor="middle" x="154.1023" y="-122.3077" font-family="Times,serif" font-size="14.00" fill="#000000">1</text>
        </g>
        <!-- q3 -->
        <g id="node5" class="node">
            <title>q3</title>
            <ellipse fill="none" stroke="#000000" cx="202.71" cy="-27.1077" rx="23.1999" ry="23.1999"/>
            <ellipse fill="none" stroke="#000000" cx="202.71" cy="-27.1077" rx="27.2158" ry="27.2158"/>
            <text text-anchor="middle" x="202.71" y="-22.9077" font-family="Times,serif" font-size="14.00" fill="#000000">q₃</text>
        </g>
        <!-- q0&#45;&gt;q3 -->
        <g id="edge5" class="edge">
            <title>q0&#45;&gt;q3</title>
            <path fill="none" stroke="#000000" d="M129.0277,-72.5834C141.5659,-64.8449 157.1693,-55.2147 170.7852,-46.8112"/>
            <polygon fill="#000000" stroke="#000000" points="172.7221,-49.7288 179.3936,-41.4983 169.0456,-43.772 172.7221,-49.7288"/>
            <text text-anchor="middle" x="154.1023" y="-63.3077" font-family="Times,serif" font-size="14.00" fill="#000000">0</text>
        </g>
        <!-- q2 -->
        <g id="node4" class="node">
            <title>q2</title>
            <ellipse fill="none" stroke="#000000" cx="299.9253" cy="-177.1077" rx="23.1999" ry="23.1999"/>
            <ellipse fill="none" stroke="#000000" cx="299.9253" cy="-177.1077" rx="27.2158" ry="27.2158"/>
            <text text-anchor="middle" x="299.9253" y="-172.9077" font-family="Times,serif" font-size="14.00" fill="#000000">q₂</text>
        </g>
        <!-- q1&#45;&gt;q2 -->
        <g id="edge3" class="edge">
            <title>q1&#45;&gt;q2</title>
            <path fill="none" stroke="#000000" d="M225.2575,-154.0657C236.7894,-157.6244 251.0996,-162.0404 264.0975,-166.0515"/>
            <polygon fill="#000000" stroke="#000000" points="263.1261,-169.4145 273.7135,-169.0189 265.1902,-162.7257 263.1261,-169.4145"/>
            <text text-anchor="middle" x="251.3177" y="-166.3077" font-family="Times,serif" font-size="14.00" fill="#000000">0</text>
        </g>
        <!-- q2&#45;&gt;q1 -->
        <g id="edge4" class="edge">
            <title>q2&#45;&gt;q1</title>
            <path fill="none" stroke="#000000" d="M282.8923,-155.5696C275.2583,-147.6141 265.5527,-139.5169 254.8177,-135.3077 248.0874,-132.6688 240.6255,-132.7303 233.5012,-134.0927"/>
            <polygon fill="#000000" stroke="#000000" points="232.1467,-130.8349 223.4294,-136.8564 233.9991,-137.5854 232.1467,-130.8349"/>
            <text text-anchor="middle" x="251.3177" y="-139.3077" font-family="Times,serif" font-size="14.00" fill="#000000">1</text>
        </g>
        <!-- q3&#45;&gt;q3 -->
        <g id="edge6" class="edge">
            <title>q3&#45;&gt;q3</title>
            <path fill="none" stroke="#000000" d="M194.679,-53.0374C192.0642,-71.6626 194.7412,-90.2154 202.71,-90.2154 209.1846,-90.2154 212.1658,-77.9676 211.6537,-63.3846"/>
            <polygon fill="#000000" stroke="#000000" points="215.1062,-62.6911 210.741,-53.0374 208.1332,-63.3062 215.1062,-62.6911"/>
            <text text-anchor="middle" x="202.71" y="-94.4154" font-family="Times,serif" font-size="14.00" fill="#000000">0</text>
        </g>
        <!-- q4 -->
        <g id="node6" class="node">
            <title>q4</title>
            <ellipse fill="none" stroke="#000000" cx="299.9253" cy="-75.1077" rx="23.2159" ry="23.2159"/>
            <text text-anchor="middle" x="299.9253" y="-70.9077" font-family="Times,serif" font-size="14.00" fill="#000000">q₄</text>
        </g>
        <!-- q3&#45;&gt;q4 -->
        <g id="edge7" class="edge">
            <title>q3&#45;&gt;q4</title>
            <path fill="none" stroke="#000000" d="M227.2415,-39.2201C240.2209,-45.6287 256.2643,-53.5501 269.9736,-60.319"/>
            <polygon fill="#000000" stroke="#000000" points="268.5093,-63.4994 279.0254,-64.7884 271.6084,-57.2228 268.5093,-63.4994"/>
            <text text-anchor="middle" x="251.3177" y="-57.3077" font-family="Times,serif" font-size="14.00" fill="#000000">0</text>
        </g>
        <!-- q5 -->
        <g id="node7" class="node">
            <title>q5</title>
            <ellipse fill="none" stroke="#000000" cx="397.1407" cy="-59.1077" rx="23.1999" ry="23.1999"/>
            <ellipse fill="none" stroke="#000000" cx="397.1407" cy="-59.1077" rx="27.2158" ry="27.2158"/>
            <text text-anchor="middle" x="397.1407" y="-54.9077" font-family="Times,serif" font-size="14.00" fill="#000000">q₅</text>
        </g>
        <!-- q4&#45;&gt;q5 -->
        <g id="edge9" class="edge">
            <title>q4&#45;&gt;q5</title>
            <path fill="none" stroke="#000000" d="M322.9237,-78.2281C332.0556,-78.8869 342.6091,-78.9185 352.033,-77.1077 355.534,-76.435 359.109,-75.4934 362.638,-74.3903"/>
            <polygon fill="#000000" stroke="#000000" points="364.1071,-77.5829 372.3625,-70.9422 361.7677,-70.9854 364.1071,-77.5829"/>
            <text text-anchor="middle" x="348.533" y="-83.3077" font-family="Times,serif" font-size="14.00" fill="#000000">1</text>
        </g>
        <!-- q5&#45;&gt;q3 -->
        <g id="edge8" class="edge">
            <title>q5&#45;&gt;q3</title>
            <path fill="none" stroke="#000000" d="M375.8156,-42.2533C362.5947,-32.9031 344.7933,-22.2004 327.033,-17.3077 298.047,-9.3224 263.9256,-12.884 238.7694,-17.815"/>
            <polygon fill="#000000" stroke="#000000" points="237.975,-14.4055 228.9189,-19.9045 239.4276,-21.2532 237.975,-14.4055"/>
            <text text-anchor="middle" x="299.9253" y="-22.3077" font-family="Times,serif" font-size="14.00" fill="#000000">0</text>
        </g>
        <!-- q5&#45;&gt;q4 -->
        <g id="edge10" class="edge">
            <title>q5&#45;&gt;q4</title>
            <path fill="none" stroke="#000000" d="M370.972,-51.996C362.6165,-50.7078 353.3751,-50.3192 345.033,-52.3077 339.5916,-53.6048 334.063,-55.6697 328.8281,-58.0397"/>
            <polygon fill="#000000" stroke="#000000" points="327.1947,-54.9431 319.8047,-62.535 330.3162,-61.2086 327.1947,-54.9431"/>
            <text text-anchor="middle" x="348.533" y="-57.3077" font-family="Times,serif" font-size="14.00" fill="#000000">0</text>
        </g>
    </g>
</svg>