<svg width="62px" height="207px" viewBox="0.00 0.00 62.00 207.28" xmlns="http://www.w3.org/2000/svg" xmlns:xlink="http://www.w3.org/1999/xlink">
    <g id="graph0" class="graph" transform="scale(1.0 1.0) rotate(0) translate(4 203.2792)">
        <title>%3</title>
        <polygon fill="#ffffff" stroke="transparent" points="-4,4 -4,-203.2792 58,-203.2792 58,4 -4,4"></polygon>
        <!-- 1 -->
        <g id="node1" class="node">
            <title>1</title>
            <ellipse fill="none" stroke="#000000" stroke-width="2" cx="27" cy="-99.6396" rx="27" ry="21.4286"></ellipse>
            <text text-anchor="middle" x="27" y="-94.6396" font-family="Helvetica,sans-Serif" font-size="20.00" fill="#000000">1</text>
        </g>
        <!-- 0 -->
        <g id="node2" class="node">
            <title>0</title>
            <ellipse fill="none" stroke="#000000" stroke-width="2" cx="27" cy="-21.2132" rx="27" ry="21.4286"></ellipse>
            <text text-anchor="middle" x="27" y="-16.2132" font-family="Helvetica,sans-Serif" font-size="20.00" fill="#000000">0</text>
        </g>
        <!-- 1&#45;&gt;0 -->
        <g id="edge1" class="edge">
            <title>1-&gt;0</title>
            <path fill="none" stroke="#000000" stroke-width="2" d="M27,-78.2092C27,-70.342 27,-61.2631 27,-52.6967"></path>
            <polygon fill="#000000" stroke="#000000" stroke-width="2" points="30.5001,-52.6176 27,-42.6177 23.5001,-52.6177 30.5001,-52.6176"></polygon>
        </g>
        <!-- 2 -->
        <g id="node3" class="node">
            <title>2</title>
            <ellipse fill="none" stroke="#000000" stroke-width="2" cx="27" cy="-178.066" rx="27" ry="21.4286"></ellipse>
            <text text-anchor="middle" x="27" y="-173.066" font-family="Helvetica,sans-Serif" font-size="20.00" fill="#000000">2</text>
        </g>
        <!-- 2&#45;&gt;1 -->
        <g id="edge2" class="edge">
            <title>2-&gt;1</title>
            <path fill="none" stroke="#000000" stroke-width="2" d="M27,-156.6357C27,-148.7684 27,-139.6895 27,-131.1231"></path>
            <polygon fill="#000000" stroke="#000000" stroke-width="2" points="30.5001,-131.044 27,-121.0441 23.5001,-131.0441 30.5001,-131.044"></polygon>
        </g>
    </g>
</svg>