<?xml version="1.0" encoding="UTF-8" standalone="no"?>
<!DOCTYPE svg PUBLIC "-//W3C//DTD SVG 1.1//EN"
        "http://www.w3.org/Graphics/SVG/1.1/DTD/svg11.dtd">
<!-- Generated by graphviz version 2.40.1 (20161225.0304)
 -->
<!-- Title: G Pages: 1 -->
<svg width="244pt" height="173pt"
     viewBox="0.00 0.00 244.00 172.80" xmlns="http://www.w3.org/2000/svg" xmlns:xlink="http://www.w3.org/1999/xlink">
    <g id="graph0" class="graph" transform="scale(1 1) rotate(0) translate(4 168.8)">
        <title>G</title>
        <polygon fill="#ffffff" stroke="transparent" points="-4,4 -4,-168.8 240,-168.8 240,4 -4,4"/>
        <g id="clust1" class="cluster">
            <title>cluster_0</title>
            <polygon fill="none" stroke="#000000" points="8,-8 8,-156.8 150,-156.8 150,-8 8,-8"/>
            <text text-anchor="middle" x="79" y="-140.2" font-family="Times,serif" font-size="14.00" fill="#000000">Before</text>
        </g>
        <g id="clust2" class="cluster">
            <title>cluster_1</title>
            <polygon fill="none" stroke="#000000" points="158,-8 158,-156.8 228,-156.8 228,-8 158,-8"/>
            <text text-anchor="middle" x="193" y="-140.2" font-family="Times,serif" font-size="14.00" fill="#000000">After</text>
        </g>
        <!-- x1 -->
        <g id="node1" class="node">
            <title>x1</title>
            <ellipse fill="none" stroke="#000000" cx="43" cy="-34" rx="27" ry="18"/>
            <text text-anchor="middle" x="43" y="-29.8" font-family="Times,serif" font-size="14.00" fill="#000000">x</text>
        </g>
        <!-- x2 -->
        <g id="node2" class="node">
            <title>x2</title>
            <ellipse fill="none" stroke="#000000" cx="115" cy="-34" rx="27" ry="18"/>
            <text text-anchor="middle" x="115" y="-29.8" font-family="Times,serif" font-size="14.00" fill="#000000">x</text>
        </g>
        <!-- + -->
        <g id="node3" class="node">
            <title>+</title>
            <ellipse fill="none" stroke="#000000" cx="79" cy="-106" rx="27" ry="18"/>
            <text text-anchor="middle" x="79" y="-101.8" font-family="Times,serif" font-size="14.00" fill="#000000">+</text>
        </g>
        <!-- +&#45;&gt;x1 -->
        <g id="edge1" class="edge">
            <title>+&#45;&gt;x1</title>
            <path fill="none" stroke="#000000" d="M70.2854,-88.5708C66.0403,-80.0807 60.8464,-69.6929 56.1337,-60.2674"/>
            <polygon fill="#000000" stroke="#000000" points="59.237,-58.6477 51.6343,-51.2687 52.976,-61.7782 59.237,-58.6477"/>
        </g>
        <!-- +&#45;&gt;x2 -->
        <g id="edge2" class="edge">
            <title>+&#45;&gt;x2</title>
            <path fill="none" stroke="#000000" d="M87.7146,-88.5708C91.9597,-80.0807 97.1536,-69.6929 101.8663,-60.2674"/>
            <polygon fill="#000000" stroke="#000000" points="105.024,-61.7782 106.3657,-51.2687 98.763,-58.6477 105.024,-61.7782"/>
        </g>
        <!-- p -->
        <g id="node4" class="node">
            <title>p</title>
            <ellipse fill="none" stroke="#000000" cx="193" cy="-106" rx="27" ry="18"/>
            <text text-anchor="middle" x="193" y="-101.8" font-family="Times,serif" font-size="14.00" fill="#000000">+</text>
        </g>
        <!-- x -->
        <g id="node5" class="node">
            <title>x</title>
            <ellipse fill="none" stroke="#000000" cx="193" cy="-34" rx="27" ry="18"/>
            <text text-anchor="middle" x="193" y="-29.8" font-family="Times,serif" font-size="14.00" fill="#000000">x</text>
        </g>
        <!-- p&#45;&gt;x -->
        <g id="edge3" class="edge">
            <title>p&#45;&gt;x</title>
            <path fill="none" stroke="#000000" d="M187.0843,-88.2022C186.2798,-80.1807 186.0571,-70.5231 186.4162,-61.5957"/>
            <polygon fill="#000000" stroke="#000000" points="189.9097,-61.8099 187.105,-51.593 182.9262,-61.3289 189.9097,-61.8099"/>
        </g>
        <!-- p&#45;&gt;x -->
        <g id="edge4" class="edge">
            <title>p&#45;&gt;x</title>
            <path fill="none" stroke="#000000" d="M198.9157,-88.2022C199.7202,-80.1807 199.9429,-70.5231 199.5838,-61.5957"/>
            <polygon fill="#000000" stroke="#000000" points="203.0738,-61.3289 198.895,-51.593 196.0903,-61.8099 203.0738,-61.3289"/>
        </g>
    </g>
</svg>