<?xml version="1.0" encoding="UTF-8" standalone="no"?>
<!DOCTYPE svg PUBLIC "-//W3C//DTD SVG 1.1//EN"
        "http://www.w3.org/Graphics/SVG/1.1/DTD/svg11.dtd">
<!-- Generated by graphviz version 2.40.1 (20161225.0304)
 digraph G {
    rankdir=TB;
    node [width=0.5 shape=circle]
    x [label="x" ]
    // y1 [label="y" ]
    y2 [label="y" ]

    m [label="-" ]
    t [label="-" ]
    p [label="+" ]
    d [label="/" ]



    p -> t -> m -> z
    m -> q
    // m1 -> q
    // m1 -> z
    // m -> k

    // t -> y1
    p -> d -> x
    d-> y2
}
 -->
<!-- Title: G Pages: 1 -->
<svg width="179pt" height="260pt"
     viewBox="0.00 0.00 179.00 260.00" xmlns="http://www.w3.org/2000/svg" xmlns:xlink="http://www.w3.org/1999/xlink">
    <g id="graph0" class="graph" transform="scale(1 1) rotate(0) translate(4 256)">
        <title>G</title>
        <polygon fill="#ffffff" stroke="transparent" points="-4,4 -4,-256 175,-256 175,4 -4,4"/>
        <!-- x -->
        <g id="node1" class="node">
            <title>x</title>
            <ellipse fill="none" stroke="#000000" cx="99" cy="-90" rx="18" ry="18"/>
            <text text-anchor="middle" x="99" y="-85.8" font-family="Times,serif" font-size="14.00" fill="#000000">x</text>
        </g>
        <!-- y2 -->
        <g id="node2" class="node">
            <title>y2</title>
            <ellipse fill="none" stroke="#000000" cx="153" cy="-90" rx="18" ry="18"/>
            <text text-anchor="middle" x="153" y="-85.8" font-family="Times,serif" font-size="14.00" fill="#000000">y</text>
        </g>
        <!-- m -->
        <g id="node3" class="node">
            <title>m</title>
            <ellipse fill="none" stroke="#000000" cx="45" cy="-90" rx="18" ry="18"/>
            <text text-anchor="middle" x="45" y="-85.8" font-family="Times,serif" font-size="14.00" fill="#000000">&#45;</text>
        </g>
        <!-- z -->
        <g id="node7" class="node">
            <title>z</title>
            <ellipse fill="none" stroke="#000000" cx="18" cy="-18" rx="18" ry="18"/>
            <text text-anchor="middle" x="18" y="-13.8" font-family="Times,serif" font-size="14.00" fill="#000000">z</text>
        </g>
        <!-- m&#45;&gt;z -->
        <g id="edge3" class="edge">
            <title>m&#45;&gt;z</title>
            <path fill="none" stroke="#000000" d="M38.6014,-72.937C35.407,-64.4186 31.471,-53.9227 27.8982,-44.3952"/>
            <polygon fill="#000000" stroke="#000000" points="31.1411,-43.0749 24.3527,-34.9405 24.5868,-45.5328 31.1411,-43.0749"/>
        </g>
        <!-- q -->
        <g id="node8" class="node">
            <title>q</title>
            <ellipse fill="none" stroke="#000000" cx="72" cy="-18" rx="18" ry="18"/>
            <text text-anchor="middle" x="72" y="-13.8" font-family="Times,serif" font-size="14.00" fill="#000000">q</text>
        </g>
        <!-- m&#45;&gt;q -->
        <g id="edge4" class="edge">
            <title>m&#45;&gt;q</title>
            <path fill="none" stroke="#000000" d="M51.3986,-72.937C54.593,-64.4186 58.529,-53.9227 62.1018,-44.3952"/>
            <polygon fill="#000000" stroke="#000000" points="65.4132,-45.5328 65.6473,-34.9405 58.8589,-43.0749 65.4132,-45.5328"/>
        </g>
        <!-- t -->
        <g id="node4" class="node">
            <title>t</title>
            <ellipse fill="none" stroke="#000000" cx="45" cy="-162" rx="18" ry="18"/>
            <text text-anchor="middle" x="45" y="-157.8" font-family="Times,serif" font-size="14.00" fill="#000000">&#45;</text>
        </g>
        <!-- t&#45;&gt;m -->
        <g id="edge2" class="edge">
            <title>t&#45;&gt;m</title>
            <path fill="none" stroke="#000000" d="M45,-143.8314C45,-136.131 45,-126.9743 45,-118.4166"/>
            <polygon fill="#000000" stroke="#000000" points="48.5001,-118.4132 45,-108.4133 41.5001,-118.4133 48.5001,-118.4132"/>
        </g>
        <!-- p -->
        <g id="node5" class="node">
            <title>p</title>
            <ellipse fill="none" stroke="#000000" cx="72" cy="-234" rx="18" ry="18"/>
            <text text-anchor="middle" x="72" y="-229.8" font-family="Times,serif" font-size="14.00" fill="#000000">+</text>
        </g>
        <!-- p&#45;&gt;t -->
        <g id="edge1" class="edge">
            <title>p&#45;&gt;t</title>
            <path fill="none" stroke="#000000" d="M65.6014,-216.937C62.407,-208.4186 58.471,-197.9227 54.8982,-188.3952"/>
            <polygon fill="#000000" stroke="#000000" points="58.1411,-187.0749 51.3527,-178.9405 51.5868,-189.5328 58.1411,-187.0749"/>
        </g>
        <!-- d -->
        <g id="node6" class="node">
            <title>d</title>
            <ellipse fill="none" stroke="#000000" cx="99" cy="-162" rx="18" ry="18"/>
            <text text-anchor="middle" x="99" y="-157.8" font-family="Times,serif" font-size="14.00" fill="#000000">/</text>
        </g>
        <!-- p&#45;&gt;d -->
        <g id="edge5" class="edge">
            <title>p&#45;&gt;d</title>
            <path fill="none" stroke="#000000" d="M78.3986,-216.937C81.593,-208.4186 85.529,-197.9227 89.1018,-188.3952"/>
            <polygon fill="#000000" stroke="#000000" points="92.4132,-189.5328 92.6473,-178.9405 85.8589,-187.0749 92.4132,-189.5328"/>
        </g>
        <!-- d&#45;&gt;x -->
        <g id="edge6" class="edge">
            <title>d&#45;&gt;x</title>
            <path fill="none" stroke="#000000" d="M99,-143.8314C99,-136.131 99,-126.9743 99,-118.4166"/>
            <polygon fill="#000000" stroke="#000000" points="102.5001,-118.4132 99,-108.4133 95.5001,-118.4133 102.5001,-118.4132"/>
        </g>
        <!-- d&#45;&gt;y2 -->
        <g id="edge7" class="edge">
            <title>d&#45;&gt;y2</title>
            <path fill="none" stroke="#000000" d="M109.9277,-147.4297C117.3934,-137.4754 127.4368,-124.0842 135.9474,-112.7368"/>
            <polygon fill="#000000" stroke="#000000" points="138.8885,-114.6486 142.0885,-104.5486 133.2885,-110.4486 138.8885,-114.6486"/>
        </g>
    </g>
</svg>