<?xml version="1.0" encoding="UTF-8" standalone="no"?>
<!DOCTYPE svg PUBLIC "-//W3C//DTD SVG 1.1//EN"
        "http://www.w3.org/Graphics/SVG/1.1/DTD/svg11.dtd">
<!-- Generated by graphviz version 2.40.1 (20161225.0304)

  digraph G {
    rankdir=TB;
    node[shape=circle, fontname="Consolas" fontsize=20]
    x [label="x" ]
    // y1 [label="y" ]
    y2 [label="y" ]

    m [label="−" ]
    t [label="−" ]
    p [label="+" ]
    d [label="+" ]
    q [label="x" ]
    z [label="0" ]



    p -> t -> m -> z
    m -> q
    // m1 -> q
    // m1 -> z
    // m -> k

    // t -> y1
    p -> d -> x
    d-> y2
}
 -->
<!-- Title: G Pages: 1 -->
<svg width="210pt" height="297pt"
     viewBox="0.00 0.00 210.25 297.02" xmlns="http://www.w3.org/2000/svg" xmlns:xlink="http://www.w3.org/1999/xlink">
    <g id="graph0" class="graph" transform="scale(1 1) rotate(0) translate(4 293.0193)">
        <title>G</title>
        <polygon fill="#ffffff" stroke="transparent" points="-4,4 -4,-293.0193 206.2548,-293.0193 206.2548,4 -4,4"/>
        <!-- x -->
        <g id="node1" class="node">
            <title>x</title>
            <ellipse fill="none" stroke="#000000" cx="116.6274" cy="-103.8823" rx="22.7556" ry="22.7556"/>
            <text text-anchor="middle" x="116.6274" y="-97.8823" font-family="Consolas" font-size="20.00" fill="#000000">x</text>
        </g>
        <!-- y2 -->
        <g id="node2" class="node">
            <title>y2</title>
            <ellipse fill="none" stroke="#000000" cx="179.6274" cy="-103.8823" rx="22.7556" ry="22.7556"/>
            <text text-anchor="middle" x="179.6274" y="-97.8823" font-family="Consolas" font-size="20.00" fill="#000000">y</text>
        </g>
        <!-- m -->
        <g id="node3" class="node">
            <title>m</title>
            <ellipse fill="none" stroke="#000000" cx="53.6274" cy="-103.8823" rx="22.7556" ry="22.7556"/>
            <text text-anchor="middle" x="53.6274" y="-97.8823" font-family="Consolas" font-size="20.00" fill="#000000">−</text>
        </g>
        <!-- z -->
        <g id="node7" class="node">
            <title>x</title>
            <ellipse fill="none" stroke="#000000" cx="22.6274" cy="-22.6274" rx="22.7556" ry="22.7556"/>
            <text text-anchor="middle" x="22.6274" y="-16.6274" font-family="Consolas" font-size="20.00" fill="#000000">x</text>
        </g>
        <!-- m&#45;&gt;z -->
        <g id="edge3" class="edge">
            <title>m&#45;&gt;z</title>
            <path fill="none" stroke="#000000" d="M45.4825,-82.5335C42.0652,-73.5761 38.0268,-62.9911 34.3027,-53.2297"/>
            <polygon fill="#000000" stroke="#000000" points="37.5526,-51.9291 30.7179,-43.8336 31.0124,-54.4243 37.5526,-51.9291"/>
        </g>
        <!-- q -->
        <g id="node8" class="node">
            <title>0</title>
            <ellipse fill="none" stroke="#000000" cx="85.6274" cy="-22.6274" rx="22.7556" ry="22.7556"/>
            <text text-anchor="middle" x="85.6274" y="-16.6274" font-family="Consolas" font-size="20.00" fill="#000000">0</text>
        </g>
        <!-- m&#45;&gt;q -->
        <g id="edge4" class="edge">
            <title>m&#45;&gt;q</title>
            <path fill="none" stroke="#000000" d="M62.035,-82.5335C65.5627,-73.5761 69.7313,-62.9911 73.5755,-53.2297"/>
            <polygon fill="#000000" stroke="#000000" points="76.8681,-54.4206 77.2759,-43.8336 70.355,-51.8555 76.8681,-54.4206"/>
        </g>
        <!-- t -->
        <g id="node4" class="node">
            <title>t</title>
            <ellipse fill="none" stroke="#000000" cx="53.6274" cy="-185.1371" rx="22.7556" ry="22.7556"/>
            <text text-anchor="middle" x="53.6274" y="-179.1371" font-family="Consolas" font-size="20.00" fill="#000000">−</text>
        </g>
        <!-- t&#45;&gt;m -->
        <g id="edge2" class="edge">
            <title>t&#45;&gt;m</title>
            <path fill="none" stroke="#000000" d="M53.6274,-162.5031C53.6274,-154.5576 53.6274,-145.4615 53.6274,-136.843"/>
            <polygon fill="#000000" stroke="#000000" points="57.1275,-136.6767 53.6274,-126.6767 50.1275,-136.6767 57.1275,-136.6767"/>
        </g>
        <!-- p -->
        <g id="node5" class="node">
            <title>p</title>
            <ellipse fill="none" stroke="#000000" cx="84.6274" cy="-266.3919" rx="22.7556" ry="22.7556"/>
            <text text-anchor="middle" x="84.6274" y="-260.3919" font-family="Consolas" font-size="20.00" fill="#000000">+</text>
        </g>
        <!-- p&#45;&gt;t -->
        <g id="edge1" class="edge">
            <title>p&#45;&gt;t</title>
            <path fill="none" stroke="#000000" d="M76.4825,-245.0432C73.0652,-236.0858 69.0268,-225.5008 65.3027,-215.7394"/>
            <polygon fill="#000000" stroke="#000000" points="68.5526,-214.4388 61.7179,-206.3433 62.0124,-216.934 68.5526,-214.4388"/>
        </g>
        <!-- d -->
        <g id="node6" class="node">
            <title>d</title>
            <ellipse fill="none" stroke="#000000" cx="116.6274" cy="-185.1371" rx="22.7556" ry="22.7556"/>
            <text text-anchor="middle" x="116.6274" y="-179.1371" font-family="Consolas" font-size="20.00" fill="#000000">+</text>
        </g>
        <!-- p&#45;&gt;d -->
        <g id="edge5" class="edge">
            <title>p&#45;&gt;d</title>
            <path fill="none" stroke="#000000" d="M93.035,-245.0432C96.5627,-236.0858 100.7313,-225.5008 104.5755,-215.7394"/>
            <polygon fill="#000000" stroke="#000000" points="107.8681,-216.9302 108.2759,-206.3433 101.355,-214.3652 107.8681,-216.9302"/>
        </g>
        <!-- d&#45;&gt;x -->
        <g id="edge6" class="edge">
            <title>d&#45;&gt;x</title>
            <path fill="none" stroke="#000000" d="M116.6274,-162.5031C116.6274,-154.5576 116.6274,-145.4615 116.6274,-136.843"/>
            <polygon fill="#000000" stroke="#000000" points="120.1275,-136.6767 116.6274,-126.6767 113.1275,-136.6767 120.1275,-136.6767"/>
        </g>
        <!-- d&#45;&gt;y2 -->
        <g id="edge7" class="edge">
            <title>d&#45;&gt;y2</title>
            <path fill="none" stroke="#000000" d="M130.6092,-167.104C139.0918,-156.1634 150.0596,-142.0176 159.4691,-129.8816"/>
            <polygon fill="#000000" stroke="#000000" points="162.3233,-131.9124 165.6848,-121.8649 156.7913,-127.6232 162.3233,-131.9124"/>
        </g>
    </g>
</svg>
