<?xml version="1.0" encoding="UTF-8" standalone="no"?>
<!DOCTYPE svg PUBLIC "-//W3C//DTD SVG 1.1//EN"
        "http://www.w3.org/Graphics/SVG/1.1/DTD/svg11.dtd">
<!-- Generated by graphviz version 2.40.1 (20161225.0304)

digraph G {

    node[shape=circle, fontname="Consolas" fontsize=20]
	subgraph cluster_0 {
		label = "Before";
		shape=circle;
		p[label="+"]
		x1[label="x"]
		x2[label="x"]

		x1-> p
		x2 -> p
	}

	subgraph cluster_1 {
        label = "After";
		p1[label="+"]

		x-> p1
		x -> p1
	}
}

 -->
<!-- Title: G Pages: 1 -->
<svg width="219pt" height="191pt"
     viewBox="0.00 0.00 219.00 191.31" xmlns="http://www.w3.org/2000/svg" xmlns:xlink="http://www.w3.org/1999/xlink">
    <g id="graph0" class="graph" transform="scale(1 1) rotate(0) translate(4 187.3097)">
        <title>G</title>
        <polygon fill="transparent" stroke="transparent" points="-4,4 -4,-187.3097 215,-187.3097 215,4 -4,4"/>
        <g id="clust1" class="cluster">
            <title>cluster_0</title>
            <polygon fill="none" stroke="#000000" points="8,-8 8,-175.3097 133,-175.3097 133,-8 8,-8"/>
            <text text-anchor="middle" x="70.5" y="-158.7097" font-family="Times,serif" font-size="14.00" fill="#000000">Before</text>
        </g>
        <g id="clust2" class="cluster">
            <title>cluster_1</title>
            <polygon fill="none" stroke="#000000" points="141,-8 141,-175.3097 203,-175.3097 203,-8 141,-8"/>
            <text text-anchor="middle" x="172" y="-158.7097" font-family="Times,serif" font-size="14.00" fill="#000000">After</text>
        </g>
        <!-- p -->
        <g id="node1" class="node">
            <title>p</title>
            <ellipse fill="none" stroke="#000000" cx="70" cy="-38.6274" rx="22.7556" ry="22.7556"/>
            <text text-anchor="middle" x="70" y="-32.6274" font-family="Consolas" font-size="20.00" fill="#000000">+</text>
        </g>
        <!-- x1 -->
        <g id="node2" class="node">
            <title>x1</title>
            <ellipse fill="none" stroke="#000000" cx="102" cy="-119.8823" rx="22.7556" ry="22.7556"/>
            <text text-anchor="middle" x="102" y="-113.8823" font-family="Consolas" font-size="20.00" fill="#000000">x</text>
        </g>
        <!-- x1&#45;&gt;p -->
        <g id="edge1" class="edge">
            <title>x1&#45;&gt;p</title>
            <path fill="none" stroke="#000000" d="M93.5924,-98.5335C90.0648,-89.5761 85.8961,-78.9911 82.0519,-69.2297"/>
            <polygon fill="#000000" stroke="#000000" points="85.2724,-67.8555 78.3515,-59.8336 78.7593,-70.4206 85.2724,-67.8555"/>
        </g>
        <!-- x2 -->
        <g id="node3" class="node">
            <title>x2</title>
            <ellipse fill="none" stroke="#000000" cx="39" cy="-119.8823" rx="22.7556" ry="22.7556"/>
            <text text-anchor="middle" x="39" y="-113.8823" font-family="Consolas" font-size="20.00" fill="#000000">x</text>
        </g>
        <!-- x2&#45;&gt;p -->
        <g id="edge2" class="edge">
            <title>x2&#45;&gt;p</title>
            <path fill="none" stroke="#000000" d="M47.1449,-98.5335C50.5623,-89.5761 54.6006,-78.9911 58.3247,-69.2297"/>
            <polygon fill="#000000" stroke="#000000" points="61.615,-70.4243 61.9095,-59.8336 55.0748,-67.9291 61.615,-70.4243"/>
        </g>
        <!-- p1 -->
        <g id="node4" class="node">
            <title>p1</title>
            <ellipse fill="none" stroke="#000000" cx="172" cy="-38.6274" rx="22.7556" ry="22.7556"/>
            <text text-anchor="middle" x="172" y="-32.6274" font-family="Consolas" font-size="20.00" fill="#000000">+</text>
        </g>
        <!-- x -->
        <g id="node5" class="node">
            <title>x</title>
            <ellipse fill="none" stroke="#000000" cx="172" cy="-119.8823" rx="22.7556" ry="22.7556"/>
            <text text-anchor="middle" x="172" y="-113.8823" font-family="Consolas" font-size="20.00" fill="#000000">x</text>
        </g>
        <!-- x&#45;&gt;p1 -->
        <g id="edge3" class="edge">
            <title>x&#45;&gt;p1</title>
            <path fill="none" stroke="#000000" d="M165.9092,-97.679C165.2718,-89.3709 165.0966,-79.7586 165.3837,-70.7337"/>
            <polygon fill="#000000" stroke="#000000" points="168.8907,-70.6961 165.9331,-60.5225 161.9008,-70.32 168.8907,-70.6961"/>
        </g>
        <!-- x&#45;&gt;p1 -->
        <g id="edge4" class="edge">
            <title>x&#45;&gt;p1</title>
            <path fill="none" stroke="#000000" d="M178.0908,-97.679C178.7282,-89.3709 178.9034,-79.7586 178.6163,-70.7337"/>
            <polygon fill="#000000" stroke="#000000" points="182.0992,-70.32 178.0669,-60.5225 175.1093,-70.6961 182.0992,-70.32"/>
        </g>
    </g>
</svg>
