<?xml version="1.0" encoding="UTF-8" standalone="no"?>
<!DOCTYPE svg PUBLIC "-//W3C//DTD SVG 1.1//EN"
        "http://www.w3.org/Graphics/SVG/1.1/DTD/svg11.dtd">
<!-- Generated by graphviz version 2.40.1 (20161225.0304)
 -->
<!-- Title: G Pages: 1 -->
<svg width="244pt" height="209pt"
     viewBox="0.00 0.00 244.00 209.48" xmlns="http://www.w3.org/2000/svg" xmlns:xlink="http://www.w3.org/1999/xlink">
    <g id="graph0" class="graph" transform="scale(1 1) rotate(0) translate(4 205.4802)">
        <title>G</title>
        <polygon fill="#ffffff" stroke="transparent" points="-4,4 -4,-205.4802 240,-205.4802 240,4 -4,4"/>
        <g id="clust1" class="cluster">
            <title>cluster_0</title>
            <polygon fill="none" stroke="#000000" points="8,-8 8,-193.4802 150,-193.4802 150,-8 8,-8"/>
            <text text-anchor="middle" x="79" y="-175.9802" font-family="Times,serif" font-size="15.00" fill="#000000">Before</text>
        </g>
        <g id="clust2" class="cluster">
            <title>cluster_1</title>
            <polygon fill="none" stroke="#000000" points="158,-8 158,-193.4802 228,-193.4802 228,-8 158,-8"/>
            <text text-anchor="middle" x="193" y="-175.9802" font-family="Times,serif" font-size="15.00" fill="#000000">After</text>
        </g>
        <!-- x1 -->
        <g id="node1" class="node">
            <title>x1</title>
            <ellipse fill="none" stroke="#000000" cx="115" cy="-132.6102" rx="27" ry="26.7407"/>
            <text text-anchor="middle" x="115" y="-125.1102" font-family="Times,serif" font-size="25.00" fill="#000000">x</text>
        </g>
        <!-- pl -->
        <g id="node3" class="node">
            <title>pl</title>
            <ellipse fill="none" stroke="#000000" cx="79" cy="-42.8701" rx="27" ry="26.7407"/>
            <text text-anchor="middle" x="79" y="-35.3701" font-family="Times,serif" font-size="25.00" fill="#000000">+</text>
        </g>
        <!-- x1&#45;&gt;pl -->
        <g id="edge1" class="edge">
            <title>x1&#45;&gt;pl</title>
            <path fill="none" stroke="#000000" d="M104.972,-107.6125C101.2196,-98.2587 96.8881,-87.4611 92.851,-77.3975"/>
            <polygon fill="#000000" stroke="#000000" points="96.0707,-76.0228 89.0991,-68.0449 89.574,-78.6291 96.0707,-76.0228"/>
        </g>
        <!-- x2 -->
        <g id="node2" class="node">
            <title>x2</title>
            <ellipse fill="none" stroke="#000000" cx="43" cy="-132.6102" rx="27" ry="26.7407"/>
            <text text-anchor="middle" x="43" y="-125.1102" font-family="Times,serif" font-size="25.00" fill="#000000">x</text>
        </g>
        <!-- x2&#45;&gt;pl -->
        <g id="edge2" class="edge">
            <title>x2&#45;&gt;pl</title>
            <path fill="none" stroke="#000000" d="M53.028,-107.6125C56.7804,-98.2587 61.1119,-87.4611 65.149,-77.3975"/>
            <polygon fill="#000000" stroke="#000000" points="68.426,-78.6291 68.9009,-68.0449 61.9293,-76.0228 68.426,-78.6291"/>
        </g>
        <!-- p -->
        <g id="node4" class="node">
            <title>p</title>
            <ellipse fill="none" stroke="#000000" cx="193" cy="-42.8701" rx="27" ry="26.7407"/>
            <text text-anchor="middle" x="193" y="-35.3701" font-family="Times,serif" font-size="25.00" fill="#000000">+</text>
        </g>
        <!-- x -->
        <g id="node5" class="node">
            <title>x</title>
            <ellipse fill="none" stroke="#000000" cx="193" cy="-132.6102" rx="27" ry="26.7407"/>
            <text text-anchor="middle" x="193" y="-125.1102" font-family="Times,serif" font-size="25.00" fill="#000000">x</text>
        </g>
        <!-- x&#45;&gt;p -->
        <g id="edge3" class="edge">
            <title>x&#45;&gt;p</title>
            <path fill="none" stroke="#000000" d="M186.7839,-106.1706C186.2695,-97.7723 186.1268,-88.3315 186.3559,-79.3549"/>
            <polygon fill="#000000" stroke="#000000" points="189.863,-79.2618 186.7956,-69.1207 182.8695,-78.9612 189.863,-79.2618"/>
        </g>
        <!-- x&#45;&gt;p -->
        <g id="edge4" class="edge">
            <title>x&#45;&gt;p</title>
            <path fill="none" stroke="#000000" d="M199.2161,-106.1706C199.7305,-97.7723 199.8732,-88.3315 199.6441,-79.3549"/>
            <polygon fill="#000000" stroke="#000000" points="203.1305,-78.9612 199.2044,-69.1207 196.137,-79.2618 203.1305,-78.9612"/>
        </g>
    </g>
</svg>